<?xml version="1.0" encoding="utf-8"?>
<!-- Generator: Adobe Illustrator 16.0.0, SVG Export Plug-In . SVG Version: 6.00 Build 0)  -->
<!DOCTYPE svg PUBLIC "-//W3C//DTD SVG 1.1//EN" "http://www.w3.org/Graphics/SVG/1.1/DTD/svg11.dtd">
<svg version="1.1" id="Layer_1" xmlns="http://www.w3.org/2000/svg" xmlns:xlink="http://www.w3.org/1999/xlink" x="0px" y="0px"
	 width="104.222px" height="98.839px" viewBox="0 0 104.222 98.839" enable-background="new 0 0 104.222 98.839"
	 xml:space="preserve">
<path fill="#BF311A" d="M41.702,30.552c0.475,0.653,0.306,2.7,0.306,3.659c0,0.377,0,0.752,0,0.969h-0.035v1.682
	c2.729,1.068,6.294,1.72,10.18,1.72c3.787,0,7.238-0.604,9.936-1.621v-4.262l0,0c-0.005-0.861,0.061-1.74,0.347-2.147
	c1.998-2.729,6.477-4.171,18.609-8.701l23.098-8.839V0c0,0-3.945,1.552-6.693,2.57c-4.342,1.612-6.843,2.501-22.388,7.337
	c-17.184,5.329-19.092,6.367-22.998,11.974c-3.886-5.606-5.804-6.645-22.989-11.974C13.521,5.071,11.03,4.183,6.684,2.57
	C3.945,1.552,0,0,0,0v13.012l23.093,8.839C35.215,26.381,39.704,27.824,41.702,30.552z"/>
<rect x="-0.093" y="84.106" fill="#BF311A" width="104.315" height="14.733"/>
<text transform="matrix(1 0 0 1 -370.0483 -300.7739)" font-family="'AkzidenzGroteskBE-Bold'" font-size="12" letter-spacing="2">  </text>
</svg>
