<?xml version="1.0" encoding="utf-8"?>
<!-- Generator: Adobe Illustrator 16.0.0, SVG Export Plug-In . SVG Version: 6.00 Build 0)  -->
<!DOCTYPE svg PUBLIC "-//W3C//DTD SVG 1.1//EN" "http://www.w3.org/Graphics/SVG/1.1/DTD/svg11.dtd">
<svg version="1.1" id="Layer_1" xmlns="http://www.w3.org/2000/svg" xmlns:xlink="http://www.w3.org/1999/xlink" x="0px" y="0px"
	 width="562.139px" height="286.564px" viewBox="0 0 562.139 286.564" enable-background="new 0 0 562.139 286.564"
	 xml:space="preserve">
<g>
	<g>
		<path fill="#BF311A" d="M47.231,31.177c0.467,0.619,0.283,2.537,0.283,3.432v0.91h-0.025v1.582
			c2.627,1.004,6.045,1.613,9.795,1.613c3.627,0,6.959-0.582,9.557-1.527v-3.994c-0.01-0.816,0.053-1.641,0.326-2.016
			c1.924-2.563,6.232-3.902,17.887-8.164l22.207-8.293V2.509c0,0-3.795,1.469-6.42,2.406c-4.189,1.525-6.582,2.363-21.533,6.883
			c-16.523,5.012-18.363,5.994-22.111,11.244c-3.75-5.25-5.584-6.232-22.111-11.244C20.133,7.278,17.741,6.44,13.559,4.915
			C10.93,3.978,7.124,2.509,7.124,2.509V14.72l22.211,8.293C40.997,27.274,45.309,28.614,47.231,31.177"/>
		<rect x="7.124" y="80.353" fill="#BF311A" width="100.318" height="14.891"/>
	</g>
	<path fill="#BF311A" d="M271.738,286.564c-8.693-0.227-15.1-3.889-15.1-11.439c0-6.863,5.033-11.438,10.982-11.438
		c0.455,0,1.369,0.227,1.6,0.227c6.178,0,10.297-3.889,10.297-13.041V141.049c0-7.777,5.947-13.957,13.729-13.957
		c7.777,0,13.955,6.18,13.955,13.957v109.824c0,24.48-13.039,35.691-33.402,35.691H271.738z"/>
	<path fill="#BF311A" d="M378.412,151.725c0-7.777,5.947-13.957,13.727-13.957s13.957,6.18,13.957,13.957v5.721
		c7.779-10.754,18.303-20.82,36.836-20.82c17.389,0,29.744,8.465,36.15,21.277c9.611-12.813,22.424-21.277,40.727-21.277
		c26.313,0,42.33,16.703,42.33,46.217v64.521c0,7.777-5.951,13.73-13.73,13.73c-7.777,0-13.957-5.953-13.957-13.73v-56.059
		c0-19.219-8.92-29.514-24.479-29.514c-15.102,0-25.855,10.525-25.855,29.973v55.6c0,7.777-6.178,13.73-13.729,13.73
		c-7.779,0-13.957-5.953-13.957-13.73v-56.285c0-18.762-9.15-29.287-24.482-29.287c-15.33,0-25.854,11.439-25.854,29.973v55.6
		c0,7.777-6.178,13.73-13.957,13.73c-7.549,0-13.727-5.953-13.727-13.73V151.725z"/>
	<path fill="#BF311A" d="M103.824,119.363H13.207C5.797,119.367,0.012,125.387,0,132.572c0.012,7.182,5.793,13.207,13.207,13.213
		h31.027v101.182c0.008,7.82,6.436,13.973,14.186,13.988c7.748-0.016,14.178-6.168,14.182-13.988V145.779h31.223
		c7.252-0.018,13.006-6.029,13.014-13.207C116.834,125.393,111.076,119.379,103.824,119.363z M222.316,119.363h-90.619
		c-7.412,0.004-13.195,6.023-13.209,13.209c0.014,7.182,5.797,13.207,13.209,13.213h31.029v101.182
		c0.004,7.82,6.434,13.973,14.182,13.988c7.748-0.016,14.176-6.168,14.182-13.988V145.779h31.227
		c7.254-0.018,13.008-6.029,13.012-13.207C235.324,125.393,229.57,119.379,222.316,119.363z"/>
	<path fill="#BF311A" d="M342.355,144.77c-7.781,0-13.727,6.18-13.727,13.957v83.037c0,7.777,6.176,13.73,13.727,13.73
		c7.777,0,13.955-5.953,13.955-13.73v-83.037C356.311,150.949,350.133,144.77,342.355,144.77z"/>
	<g>
		<path fill="#919195" d="M451.168,83.52l0.852-35.59c9.545-2.555,16.197-11.666,15.297-21.842
			c-1.002-11.385-11.088-19.834-22.475-18.83C433.453,8.268,425,18.35,426.006,29.736c0.766,8.688,6.826,15.65,14.707,18.025
			l-0.823,34.632c-6.419,1.066-11.869,4.95-15.051,10.35l-70.263-37.212c0.67-2.211,0.949-4.582,0.732-7.023
			c-0.902-10.275-9.99-17.889-20.26-16.984c-10.268,0.908-17.885,9.996-16.979,20.271c0.779,8.855,7.654,15.721,16.119,16.865
			l3.771,26.75c-3.576,1.557-6.533,4.189-8.518,7.457l-19.515-4.811l-3.352,10.807l15.089,3.717v0.019l5.105,1.258
			c0.004,0.113,0.002,0.223,0.008,0.336c0.904,10.268,10,17.879,20.27,16.979c10.262-0.91,17.881-10,16.973-20.271
			c-0.738-8.395-6.953-15.014-14.805-16.654l-3.883-27.531c0.988-0.512,1.916-1.121,2.785-1.799l73.639,38.998
			c0,0.625,0.014,1.252,0.072,1.891c0.326,3.691,1.613,7.063,3.584,9.918l0.24,0.34l0.725,0.834c1.901,2.453,4.31,4.487,7.081,5.936
			l0.257,0.105l0.278,0.152c2.859,1.396,6.06,2.201,9.456,2.201c11.934,0,21.607-9.674,21.607-21.607
			C465.059,94.473,459.285,86.629,451.168,83.52z"/>
		<path fill="#BF311A" d="M311.113,99.541c0,10.439-8.461,18.9-18.902,18.9c-10.439,0-18.9-8.461-18.9-18.9
			c0-10.441,8.461-18.902,18.9-18.902C302.652,80.639,311.113,89.1,311.113,99.541z"/>
	</g>
	<path fill="#0069AA" d="M249.613,236.041c0,10.439-8.461,18.9-18.902,18.9c-10.439,0-18.9-8.461-18.9-18.9
		c0-10.441,8.461-18.902,18.9-18.902C241.152,217.139,249.613,225.6,249.613,236.041z"/>
</g>
</svg>
